<svg xmlns="http://www.w3.org/2000/svg" viewBox="0 0 258 267" fill="none">
  <path d="M150 29c42-7 82 21 98 61 17 43 6 96-29 128-30 28-75 26-101-5-24-29-19-67-7-97 11-28 7-57 24-76 4-5 9-9 15-11Z" fill="#eaf4fa" opacity=".76"/>
  <path d="M259 266c-38 1-67-17-88-45-26-34-50-58-99-92" stroke="#c7e2f1" stroke-width="1.8" stroke-linecap="round" opacity=".78"/>
  <path d="M175 222c-5-21-12-39-24-56m-20-28c-17-10-34-19-55-26m78 52c14-13 25-29 31-46m-8 104c-7-12-14-23-23-34m-47-75c4-16 9-30 15-43" stroke="#c7e2f1" stroke-width="1.45" stroke-linecap="round" opacity=".68"/>
  <path d="M63 75c19 1 36 12 47 31-20-2-38-13-47-31Z" fill="#d9eaf5" fill-opacity=".45" stroke="#c5e0ef" stroke-width="1.35"/>
  <path d="M69 79c13 7 25 15 37 24" stroke="#c1ddeb" stroke-width="1.1" stroke-linecap="round" opacity=".72"/>
  <path d="M28 104c21-12 48-8 73 9-23 4-50 0-73-9Z" fill="#d9eaf5" fill-opacity=".45" stroke="#c5e0ef" stroke-width="1.35"/>
  <path d="M35 104c20 1 40 4 60 8" stroke="#c1ddeb" stroke-width="1.1" stroke-linecap="round" opacity=".72"/>
  <path d="M115 65c-6 17-3 37 10 54 7-20 3-40-10-54Z" fill="#d9eaf5" fill-opacity=".48" stroke="#c5e0ef" stroke-width="1.35"/>
  <path d="M119 113c-2-15-3-31-4-45" stroke="#c1ddeb" stroke-width="1.1" stroke-linecap="round" opacity=".72"/>
  <path d="M182 111c-9 17-8 39 2 57 11-19 10-41-2-57Z" fill="#d9eaf5" fill-opacity=".48" stroke="#c5e0ef" stroke-width="1.35"/>
  <path d="M184 162c-1-17-2-34-2-49" stroke="#c1ddeb" stroke-width="1.1" stroke-linecap="round" opacity=".72"/>
  <path d="M215 132c-10 18-10 42 1 63 12-21 11-45-1-63Z" fill="#d9eaf5" fill-opacity=".48" stroke="#c5e0ef" stroke-width="1.35"/>
  <path d="M216 189c-1-19-2-37-1-55" stroke="#c1ddeb" stroke-width="1.1" stroke-linecap="round" opacity=".72"/>
  <path d="M125 175c19 1 35 11 47 28-20-1-37-11-47-28Z" fill="#d9eaf5" fill-opacity=".45" stroke="#c5e0ef" stroke-width="1.35"/>
  <path d="M131 179c13 7 25 14 37 22" stroke="#c1ddeb" stroke-width="1.1" stroke-linecap="round" opacity=".72"/>
</svg>
