<svg xmlns="http://www.w3.org/2000/svg" width="180" height="167"><path fill="#a3c1e4" d="m84.688 23.188 2.686.056c5.98.253 9.723 1.268 14.626 4.756a180 180 0 0 1 2 4l2.938 1.438c3.635 1.855 4.54 2.797 6.061 6.561 1.669 7.032.619 12.702-1.502 19.533L110.999 62l2 2c.468 5.602.151 9.162-3 14-3.3 3-3.3 3-6 3-.06.453-.06.453-.373 2.75-.627 3.25-.627 3.25-1.689 5.188-1.438 3.165-1.297 5.633-.937 9.061 1.75 2.689 1.75 2.689 4 5l1.817 1.989c2.363 2.177 4.42 3.255 7.359 4.528l3.01 1.355q3.103 1.37 6.218 2.712c8.088 3.668 13.986 7.94 17.429 16.362 1.352 4.236 2.162 8.546 2.855 12.93l.393 2.238c.953 5.822.919 10.825.919 16.887H20c0-6.529.474-11.681 1.75-17.937l.477-2.553c1.826-9.13 4.534-17.146 12.431-22.67 6.093-3.928 12.542-6.62 19.272-9.27 6.044-2.555 8.313-4.615 11.07-10.57l2-1c-.502-5.025-1.718-8.534-4-13v-4h-2.187c-3.794-1.35-4.91-3.31-6.868-6.734-1.534-3.677-1.413-6.315-.946-10.267.66-.99 1.321-1.979 2-3-.277-1.839-.277-1.839-.937-3.937-1.59-6.26-1.511-13.24.797-19.327C56 35.999 56 35.999 59 34.563c3-1.564 3-1.564 4.25-4.126L64 28c2.691-2.69 5.37-3.027 9-4 3.594-1.797 7.749-.977 11.689-.812M66.999 46c-1.514 1.516-1.261 3.017-1.436 5.126-.297 3.032-.746 5.486-1.626 8.437-1.1 4.032-1.084 7.276-.937 11.436h-2l-2-7h-3c-1 1-1 1-1.312 4.127.383 4.758 1.731 6.923 4.311 10.873h3v-3h2l.008 1.873c.325 7.111 2.175 11.849 6.992 17.127 3.925 3.456 7.4 5.693 12.564 6.689 7.135-1.428 12.045-5.465 16.183-11.353 2.252-4.193 3.283-8.7 4.254-13.335l1 2c2.654-.972 3.799-1.657 5.25-4.124.978-3.752.882-7.002.75-10.877h-3l-3 6c-.194-1.3-.386-2.602-.585-3.945l-.79-5.178-.382-2.594c-.706-4.587-1.431-8.977-3.243-13.282-3.588-2.192-6.862-2.276-11-2l-2 1c-1.456.096-2.916.13-4.374.126-.386 0-.386 0-2.337.007-2.29-.134-2.29-.134-4.347-.727-3.373-.705-5.96 1.132-8.942 2.593m2 49c-1.032 11.48-1.032 11.48 2.75 16.5 1.73 1.98 3.526 3.758 5.439 5.563 2.528 2.701 3.487 5.492 4.811 8.936 3.499-1.164 3.67-1.724 5.377-4.811 2.12-3.587 4.308-5.638 7.623-8.189 2.843-2.99 3.993-4.892 4.025-9.053-.248-3.004-.58-5.966-1.025-8.946l-1.721 1.278c-4.693 3.33-8.32 5.832-14.279 5.721-4.882-1.626-8.835-4.053-13-7m20 24 1 2Zm-1 2 1 2Zm-1 2 1 2Z"/><path fill="#a6c4e5" d="m61 108 .367 2.668.508 3.52.492 3.48c.574 3.019 1.381 5.538 2.633 8.332l7-5 5 3v-2h-3l-1-4 2 1v2l4-1q.794 2.183 1.562 4.375l.879 2.461C82 129 82 129 81 131c-.155 2.323-.25 4.65-.316 6.977l-.116 3.799-.13 4.849L80 162H20c0-8 0-8 2-10 .533-2.506.978-4.973 1.375-7.5C24.933 135.538 26.53 126.942 34 121c5.528-3.788 11.296-6.662 17.438-9.312l2.466-1.088C59.841 108 59.841 108 61 108"/><path fill="#3669a9" d="m84.688 23.188 2.686.056c5.98.253 9.723 1.268 14.626 4.756a180 180 0 0 1 2 4l2.938 1.438c3.635 1.855 4.54 2.797 6.061 6.561 1.669 7.032.619 12.702-1.502 19.533L110.999 62l2 2c.468 5.602.151 9.162-3 14-3.298 3-3.298 3-6 3-.06.453-.06.453-.373 2.75-.627 3.25-.627 3.25-1.689 5.188-1.438 3.165-1.297 5.633-.937 9.061 1.75 2.689 1.75 2.689 4 5l1.808 1.98c2.395 2.209 4.542 3.347 7.508 4.677l3.064 1.41q3.188 1.436 6.376 2.867l3.06 1.41 2.796 1.257c2.557 1.499 3.802 2.925 5.388 5.4-4.428-1.668-8.596-3.742-12.812-5.874l-2.041-1.029q-2.035-1.022-4.068-2.05c-3.355-1.69-6.717-3.368-10.08-5.047l.189 3.938c.007 5.011-.987 9.54-3.189 14.061-.328.166-.328.166-2 1 .218-.772.434-1.545.657-2.343 4.066-15.21 4.066-15.21.343-22.657-.252.627-.506 1.254-.768 1.9l-1.043 2.477-1.02 2.46c-1.169 2.163-1.169 2.163-4.169 4.163 1.877-4.874 1.877-4.874 3-6a102 102 0 0 0-.436-5.561l-.31-3.067c-.04-.391-.04-.391-.254-2.371l-2.686 2.376c-4.062 3.33-6.746 4.623-12.126 4.623-5.028-.755-8.44-3.74-12.187-7a390 390 0 0 0-.124 5.189c-.025.962-.047 1.925-.072 2.918.204 3.023.927 5.162 2.195 7.894-3.793-2.356-5.204-4.963-7-9-2.945 5.892-1.197 15.647 0 22l2 1h-3c-2.41-5.763-3.437-10.794-4-17a1410 1410 0 0 0-9.437 4.126l-2.661 1.147c-16.824 7.45-16.824 7.45-20.135 15.337-2.75 8.582-4.255 17.52-5.767 26.39h-1c-.744-10.428 1.662-24.39 8-33 6.677-6.293 15.148-9.353 23.509-12.767 6.523-2.818 9.65-4.66 12.491-11.234.66-.328 1.32-.658 2-1-.501-5.023-1.716-8.533-4-13v-4h-2.187c-3.793-1.349-4.908-3.308-6.867-6.733-1.534-3.677-1.413-6.315-.946-10.267.66-.99 1.321-1.979 2-3-.277-1.839-.277-1.839-.937-3.937-1.59-6.26-1.511-13.24.797-19.327C56 35.999 56 35.999 59 34.563c3-1.564 3-1.564 4.25-4.126L64 28c2.691-2.69 5.37-3.027 9-4 3.594-1.797 7.749-.977 11.689-.812M66.999 46c-1.514 1.516-1.261 3.017-1.436 5.126-.297 3.032-.746 5.486-1.626 8.437-1.1 4.032-1.084 7.276-.937 11.436h-2l-2-7h-3c-1 1-1 1-1.312 4.127.383 4.758 1.731 6.923 4.311 10.873h3v-3h2l.008 1.873c.325 7.111 2.175 11.849 6.992 17.127 3.925 3.456 7.4 5.693 12.564 6.689 7.135-1.428 12.045-5.465 16.183-11.353 2.252-4.193 3.283-8.7 4.254-13.335l1 2c2.654-.972 3.799-1.657 5.25-4.124.978-3.752.882-7.002.75-10.877h-3l-3 6c-.194-1.3-.386-2.602-.585-3.945l-.79-5.178-.382-2.594c-.706-4.587-1.431-8.977-3.243-13.282-3.588-2.192-6.862-2.276-11-2l-2 1c-1.456.096-2.916.13-4.374.126-.386 0-.386 0-2.337.007-2.29-.134-2.29-.134-4.347-.727-3.373-.705-5.96 1.132-8.942 2.593"/><path fill="#a1c1e5" d="M31 123c3.183 2.585 3.94 5.312 5.062 9.188l1.02 3.492A303 303 0 0 1 40 147h1v15H20c0-8 0-8 2-10 .533-2.506.979-4.973 1.375-7.5 1.331-7.777 3.198-14.86 7.625-21.5"/><path fill="#6182bb" d="m56 61 1 3-1 1c-.408 5.204.162 8.585 3 13l3 1v-3h2l.445 2.344c1.843 8.558 4.417 15.253 11.993 20.156 4.045 1.703 6.224 2.185 10.562 1.5 5.807-2.509 10.227-6.285 13-12 .91-2.897 1.666-5.778 2.324-8.742L103 77l2-1v3c3.595-2.637 4.375-4.958 5.125-9.188l.383-2.667L111 65l2-1c.29 5.601.16 9.148-3 14-3.3 3-3.3 3-6 3l-.375 2.75C103 87 103 87 101.938 88.938c-1.439 3.165-1.299 5.633-.938 9.062 1.75 2.687 1.75 2.687 4 5l1.808 1.979c2.395 2.208 4.543 3.346 7.508 4.677l3.065 1.41q3.186 1.436 6.375 2.868l3.06 1.41 2.796 1.256c2.556 1.499 3.801 2.925 5.388 5.4-4.428-1.668-8.597-3.741-12.812-5.875l-2.042-1.027-4.066-2.05c-3.356-1.691-6.718-3.369-10.08-5.048l.188 3.938c.007 5.012-.988 9.541-3.188 14.062l-2 1 .656-2.344c4.067-15.211 4.067-15.211.344-22.656l-.77 1.898-1.042 2.477-1.02 2.461C98 111 98 111 95 113c1.875-4.875 1.875-4.875 3-6-.09-1.858-.246-3.712-.438-5.562l-.308-3.067L97 96l-2.688 2.375c-4.06 3.332-6.745 4.625-12.124 4.625-5.029-.757-8.442-3.742-12.188-7a408 408 0 0 0-.125 5.188l-.07 2.917c.204 3.023.926 5.163 2.195 7.895-3.794-2.355-5.206-4.963-7-9-2.946 5.892-1.199 15.647 0 22l2 1h-3c-2.41-5.763-3.438-10.794-4-17a1433 1433 0 0 0-9.438 4.125l-2.662 1.148c-16.823 7.45-16.823 7.45-20.134 15.336C25.017 138.192 23.511 147.131 22 156h-1c-.745-10.429 1.661-24.391 8-33 6.675-6.293 15.147-9.354 23.508-12.768C59.03 107.414 62.157 105.572 65 99l2-1c-.502-5.025-1.718-8.535-4-13v-4h-2.188c-3.793-1.349-4.909-3.308-6.863-6.734C52.393 70.552 52.459 67.993 53 64c1.5-2 1.5-2 3-3"/><path fill="#a6c4e5" d="M135 126c3 1 3 1 3.89 2.669 1.949 6.159 3.007 12.239 3.798 18.643l.392 2.956c.515 3.966.92 7.724.92 11.732h-16c.585-6.142 1.541-12.007 3-18l-2 2c.462-6.117 1.472-15.472 6-20"/><path fill="#5c83b9" d="M65 102c1.615 2.076 3.008 4.016 4.188 6.375 1.809 2.621 3.241 3.763 5.812 5.563 3.617 2.58 5.479 4.783 7 9.062v3c2.054-1.848 3.371-3.582 4.875-5.938 2.106-3.034 4.15-4.913 7.125-7.062l1 2-2 2 4 2c-1.154 2.309-2.409 3.341-4.375 5l-1.836 1.562C89 127 89 127 86 129c-.188 2.625-.188 2.625 0 5h-4l-1 28h-1q-.037-6.513-.055-13.025-.008-2.214-.02-4.429a1692 1692 0 0 1-.023-6.374l-.016-3.872c.093-2.683.413-4.747 1.114-7.3-.559-1.922-.559-1.922-1.438-3.75L78 120l-3 1-1-1v2l4 2c-3.106 0-4.353-.539-7-2l-3 3-3-1c-2.54-6.016-2.641-12.549-2-19zm24 17 1 2Zm-1 2 1 2Zm-1 2 1 2Z"/><path fill="#a7c6e9" d="M101 102h2c2.795 5.59 2.666 11.122 1 17l-1 3-4 1-1.75-2.438c-2.231-2.541-2.995-3.213-6.25-3.562l1.875-.75c2.573-1.514 2.914-2.564 4.125-5.25l1.07-2.359 1.055-2.391 1.07-2.422z"/><path fill="#a4c4e9" d="M65 102c2.242 2.883 4.146 5.856 6 9l2 3c-.35 3.179-1.669 5.226-3.562 7.75l-1.379 1.859L67 125c-2-1-2-1-3.125-3.812-1.374-5.244-1.409-10.817-.875-16.188z"/><path fill="#89b1dd" d="M133 127c1.572 3.143.117 5.365-.938 8.625l-1.152 3.602L130 142l1 1c1.419 2.837.406 4.752-.387 7.691-.644 2.425-1.2 4.859-1.738 7.309l-.508 2.312L128 162h-4v-21h2l1 2 .805-2.738 1.07-3.574 1.055-3.551C131 130 131 130 133 127"/><path fill="#6c8abb" d="m56 61 1 3-1 1c-.408 5.204.162 8.585 3 13l3 1v-3h2l.586 2.484.789 3.266.773 3.234C66.875 87.559 67.703 89.676 69 92l-2 1a299 299 0 0 1-2-3.75l-1.125-2.109C63 85 63 85 63 81h-2.188c-3.793-1.349-4.909-3.308-6.863-6.734C52.393 70.552 52.459 67.993 53 64c1.5-2 1.5-2 3-3"/><path fill="#8baed8" d="M93 117c2.125.938 2.125.938 4 2-1.154 2.309-2.409 3.341-4.375 5l-1.836 1.562C89 127 89 127 86 129c-.188 2.625-.188 2.625 0 5h-4c.38-5.444 2.074-7.354 6-11a258 258 0 0 0 3-5z"/><path fill="#81a8d6" d="M33 127c2 1 2 1 2.686 2.858l.603 2.396.664 2.588.672 2.72.695 2.733q.85 3.35 1.68 6.705h1v15h-1a16107 16107 0 0 1-3.361-16.157q-.616-2.956-1.229-5.913l-.746-3.587A257 257 0 0 1 33 127"/><path fill="#728ec5" d="M112 64h1c.29 5.601.16 9.148-3 14-3.3 3-3.3 3-6 3l-1 6h-2a436 436 0 0 1 .875-4.938l.492-2.777L103 77l2-1v3c4.396-3.224 4.807-6.76 5.605-11.855C111 65 111 65 112 64"/><path fill="#6f99cc" d="M124 141h2l1 6h1l-.438 3c-.571 3.994-1.07 7.995-1.562 12h-2z"/><path fill="#658bbe" d="m72 112 7 5-2 4h-2l-1-1v2l4 2c-3.106 0-4.353-.539-7-2l-4 3c1.198-2.596 2.512-4.716 4.188-7.062L73 115z"/><path fill="#5977ad" d="M68 92q1.974 1.43 3.938 2.875l2.214 1.617C76 98 76 98 77 100c-4.75-1.875-4.75-1.875-7-3-.369 10.558-.369 10.558 2 15-3.342-1.894-3.98-2.941-5.25-6.688L66 102h2l-.562-1.625c-.552-2.995-.044-5.412.562-8.375"/><path fill="#7890be" d="m74 82 2.887.254 3.801.308 3.761.317c3.109.106 5.559-.107 8.551-.879l-2 4H79l4 3c-4.288-.476-6.266-1.659-9-5z"/><path fill="#5177ac" d="m98 56 2 2-1 3-10-1v-3c3.013-1.507 5.683-1.178 9-1"/><path fill="#7c97c3" d="M62 76h2l.586 2.484.789 3.266.773 3.234C66.875 87.559 67.703 89.676 69 92l-2 1a299 299 0 0 1-2-3.75l-1.125-2.109C63 85 63 85 63 81h-3v-2h2z"/><path fill="#4775b0" d="M102 48h1l.438 3.438C104 55 104 55 105 56c.235 2.35.414 4.706.562 7.062l.254 3.911L106 70l-2 1c-.532-3.269-1.049-6.54-1.562-9.812l-.459-2.815-.42-2.705-.397-2.491C101 51 101 51 102 48"/><path fill="#2a5c9c" d="m102 31 3 3-2 1-.438 2.875C101.98 41.11 101.518 42.029 99 44c-.8-3.287-1.097-4.71 0-8l2-1c.625-2.062.625-2.062 1-4"/><path fill="#4071af" d="M110 54h2l-.781 5.957C111 62 111 62 111 65c-3 0-3 0-5-1 .573-2.867.861-3.861 3-6 .625-2.125.625-2.125 1-4"/><path fill="#4168a4" d="m78 57 1 2-12 1 1-3c3.732-1.244 6.18-.778 10 0"/><path fill="#6795cc" d="M62 109h1l.367 3.465.508 4.473.238 2.287c.226 1.934.55 3.857.887 5.775l2 1h-3c-2.811-6.185-3.279-10.341-2-17"/><path fill="#4470aa" d="M55 38h2c.346 5.654-.566 9.03-3 14h-1q.212-2.938.438-5.875l.246-3.305C54 40 54 40 55 38"/><path fill="#5072a4" d="M98 64c-1.231 2.463-2.781 3.425-5 5l-1-3h-2v-2c2.862-1.431 4.934-.6 8 0"/><path fill="#5376aa" d="m77 64-2 5-3-1-1-2-2 1 1-3c2.667-1.333 4.167-.671 7 0"/><path fill="#698ec8" d="M93 117c2.125.938 2.125.938 4 2-1.252 2.504-3 4.064-5 6l-2-1 1-3v-3z"/><path fill="#5886c4" d="M41 147v15h-1c-2.296-9.41-2.296-9.41-2-14 2-1 2-1 3-1"/><path fill="#7d99c5" d="m82 65 2 2c-.242 2.383-.242 2.383-.875 5.125l-.617 2.758L82 77h2v2l-4-1a438 438 0 0 1 2-13"/><path fill="#b3cfef" d="M101 102h2l1 5-6 4z"/><path fill="#5e84b6" d="M65 48h1c.194 5.527-.252 9.756-2 15h-1l-1-8h3z"/><path fill="#6581b1" d="M92 82v3c-2.728 1.364-4.61.878-7.625.562l-3.039-.308L79 85v-1z"/><path fill="#275798" d="m67 44 2 1-1.438 1.062C65.321 48.842 65.329 51.514 65 55h-1V45z"/><path fill="#4873a9" d="M104 33c2.782.376 4.588.673 6.812 2.438C112 37 112 37 112 39h-2l-3-3-3-1z"/><path fill="#215494" d="M99 37h3l1 2-4 5c-1.125-4.75-1.125-4.75 0-7"/><path fill="#8ca5cd" d="M107 69h1v5l-2 1z"/><path fill="#bcd3f0" d="m71 98 4 4-4-1z"/><path fill="#97aed2" d="M81 90h6l-4 2z"/><path fill="#86a1ca" d="M59 70c2 3 2 3 2 5h-2z"/><path fill="#c0d8f3" d="m90 102 2 1-4 2v-2z"/><path fill="#6985b4" d="m88 86 2 1h-3z"/><path fill="#7490bb" d="M86 76v3Z"/><path fill="#839ec7" d="M109 65v3Z"/><path fill="#a1b6d2" d="m84 88 3 1Z"/><path fill="#7090c0" d="M56 66h2l-1 2z"/><path fill="#a2b6d2" d="m77 65 2 1Z"/></svg>